<!-- icon666.com - MILLIONS OF FREE VECTOR ICONS --><svg version="1.1" id="Capa_1" xmlns="http://www.w3.org/2000/svg" xmlns:xlink="http://www.w3.org/1999/xlink" x="0px" y="0px" viewBox="0 0 512 512" style="enable-background:new 0 0 512 512;" xml:space="preserve"><path style="fill:#FFD399;" d="M512,138.666v234.678c0,9.411-2.34,18.282-6.471,26.073c-9.381,17.752-28.043,29.873-49.486,29.873 H55.947c-21.373,0-39.985-12.051-49.396-29.713C2.37,391.756,0,382.815,0,373.344V138.666c0-9.051,2.16-17.612,5.991-25.183 C15.222,95.241,34.144,82.71,55.947,82.71h400.097c21.953,0,40.995,12.701,50.146,31.154C509.91,121.344,512,129.765,512,138.666z"></path><g><path style="fill:#FFC477;" d="M512,138.666v234.678c0,9.411-2.34,18.282-6.471,26.073c-9.381,17.752-28.043,29.873-49.486,29.873 H256.14V82.71h199.903c21.953,0,40.995,12.701,50.146,31.154C509.91,121.344,512,129.765,512,138.666z"></path><path style="fill:#FFC477;" d="M505.529,399.417c-9.381,17.752-28.043,29.873-49.486,29.873H55.947 c-21.373,0-39.985-12.051-49.396-29.713l191.112-164.429h116.944L505.529,399.417z"></path></g><path style="fill:#FFB655;" d="M505.529,399.417c-9.381,17.752-28.043,29.873-49.486,29.873H256.14V235.148h58.467L505.529,399.417z "></path><path style="fill:#FFFCE5;" d="M506.189,113.863l-223.026,167.16c-8.081,5.971-17.552,8.961-27.023,8.981h-0.1 c-9.501,0-19.002-2.99-27.113-8.981l-0.11-0.07L5.991,113.483C15.222,95.241,34.144,82.71,55.947,82.71h400.097 C477.996,82.71,497.038,95.411,506.189,113.863z"></path><path style="fill:#FFE89C;" d="M506.189,113.863l-223.026,167.16c-8.081,5.971-17.552,8.961-27.023,8.981V82.71h199.903 C477.996,82.71,497.038,95.411,506.189,113.863z"></path></svg>