<!-- icon666.com - MILLIONS OF FREE VECTOR ICONS --><svg enable-background="new 0 0 520 520" viewBox="0 0 520 520" xmlns="http://www.w3.org/2000/svg"><g id="_x31_64_x2C__Location_x2C__Map_x2C__Communication"><g><g><path d="m407.726 397.792c-14.844-59.479-150.707-67.597-214.082-53.105-.008-.009-.016-.018-.023-.026-28.462 6.547-69.096 21.658-79.952 48.8-7.568 19.225 3.857 36.589 20.752 48.623 7.324 5.276 17.179 10.764 30.196 15.756 47.281 18.11 111.235 20.257 161.75 8.706.009.009.017.018.024.026 25.763-5.926 59.285-18.155 74.761-39.482 6.46-8.788 9.157-18.966 6.574-29.298z" fill="#d7deed"></path><path d="m457.5 236.311c15.19 0 27.5 12.31 27.5 27.499 0 15.191-12.31 27.5-27.5 27.5-15.18 0-27.5-12.309-27.5-27.5 0-15.189 12.32-27.499 27.5-27.499z" fill="#ff5722"></path><path d="m67.5 311.31c12.43 0 22.5 10.07 22.5 22.5s-10.07 22.5-22.5 22.5c-12.42 0-22.5-10.07-22.5-22.5 0-12.429 10.08-22.5 22.5-22.5z" fill="#ff5722"></path><path d="m325.74 344.541c-23.96 26.73-48.35 54.1-66.35 82.98-17.73-28.47-41.94-55.9-65.77-82.86-43.02-48.689-84.79-95.799-84.79-144.589 0-83.45 67.69-151.14 151.141-151.14 83.51 0 151.209 67.69 151.209 151.14 0 49.599-42.01 95.998-85.44 144.469zm26.97-149.98c0-51.06-41.69-92.67-92.67-92.67-51.05 0-92.75 41.61-92.75 92.67 0 51.05 41.7 92.669 92.75 92.669 50.98 0 92.67-41.619 92.67-92.669z" fill="#d94556"></path><g fill="#07cc66"><path d="m462.5 146.311c4.15 0 7.5 3.36 7.5 7.5s-3.35 7.5-7.5 7.5c-4.14 0-7.5-3.36-7.5-7.5s3.36-7.5 7.5-7.5z"></path><path d="m447.5 386.31c4.15 0 7.5 3.36 7.5 7.5s-3.35 7.5-7.5 7.5c-4.14 0-7.5-3.36-7.5-7.5 0-4.139 3.36-7.5 7.5-7.5z"></path><path d="m397.5 46.311c4.15 0 7.5 3.36 7.5 7.5s-3.35 7.5-7.5 7.5c-4.14 0-7.5-3.36-7.5-7.5s3.36-7.5 7.5-7.5z"></path><path d="m102.5 51.311c4.15 0 7.5 3.36 7.5 7.5s-3.35 7.5-7.5 7.5c-4.14 0-7.5-3.36-7.5-7.5s3.36-7.5 7.5-7.5z"></path><path d="m87.5 251.311c4.15 0 7.5 3.36 7.5 7.499 0 4.14-3.35 7.5-7.5 7.5-4.14 0-7.5-3.36-7.5-7.5 0-4.139 3.36-7.499 7.5-7.499z"></path><path d="m72.5 441.31c4.15 0 7.5 3.36 7.5 7.5s-3.35 7.5-7.5 7.5c-4.14 0-7.5-3.36-7.5-7.5 0-4.139 3.36-7.5 7.5-7.5z"></path><path d="m42.5 161.311c4.15 0 7.5 3.36 7.5 7.5s-3.35 7.5-7.5 7.5c-4.14 0-7.5-3.36-7.5-7.5s3.36-7.5 7.5-7.5z"></path></g><path d="m260.03 262.23c-37.341 0-67.72-30.356-67.72-67.669 0-2.761 2.239-5 5-5s5 2.239 5 5c0 31.799 25.893 57.67 57.72 57.67 15.337 0 29.801-6.012 40.726-16.927 10.927-10.916 16.944-25.386 16.944-40.743 0-31.799-25.87-57.67-57.67-57.67-2.761 0-5-2.239-5-5s2.239-5 5-5c37.313 0 67.67 30.357 67.67 67.67 0 18.03-7.06 35.012-19.876 47.817-12.813 12.802-29.787 19.852-47.794 19.852z" fill="#d7deed"></path></g><g><path d="m407.726 397.792c-14.844-59.479-150.707-67.597-214.082-53.105-.008-.009-.016-.018-.023-.026-28.462 6.547-69.096 21.658-79.952 48.8-7.568 19.225 3.857 36.589 20.752 48.623 7.324 5.276 17.179 10.764 30.196 15.756 47.281 18.11 111.235 20.257 161.75 8.706.009.009.017.018.024.026 25.763-5.926 59.285-18.155 74.761-39.482 6.46-8.788 9.157-18.966 6.574-29.298z" fill="#d7deed"></path><path d="m457.5 236.311c15.19 0 27.5 12.31 27.5 27.499 0 15.191-12.31 27.5-27.5 27.5-15.18 0-27.5-12.309-27.5-27.5 0-15.189 12.32-27.499 27.5-27.499z" fill="#ff5722"></path><path d="m67.5 311.31c12.43 0 22.5 10.07 22.5 22.5s-10.07 22.5-22.5 22.5c-12.42 0-22.5-10.07-22.5-22.5 0-12.429 10.08-22.5 22.5-22.5z" fill="#ff5722"></path><path d="m325.74 344.541c-23.96 26.73-48.35 54.1-66.35 82.98-17.73-28.47-41.94-55.9-65.77-82.86-43.02-48.689-84.79-95.799-84.79-144.589 0-83.45 67.69-151.14 151.141-151.14 83.51 0 151.209 67.69 151.209 151.14 0 49.599-42.01 95.998-85.44 144.469zm26.97-149.98c0-51.06-41.69-92.67-92.67-92.67-51.05 0-92.75 41.61-92.75 92.67 0 51.05 41.7 92.669 92.75 92.669 50.98 0 92.67-41.619 92.67-92.669z" fill="#d94556"></path><g fill="#07cc66"><path d="m462.5 146.311c4.15 0 7.5 3.36 7.5 7.5s-3.35 7.5-7.5 7.5c-4.14 0-7.5-3.36-7.5-7.5s3.36-7.5 7.5-7.5z"></path><path d="m447.5 386.31c4.15 0 7.5 3.36 7.5 7.5s-3.35 7.5-7.5 7.5c-4.14 0-7.5-3.36-7.5-7.5 0-4.139 3.36-7.5 7.5-7.5z"></path><path d="m397.5 46.311c4.15 0 7.5 3.36 7.5 7.5s-3.35 7.5-7.5 7.5c-4.14 0-7.5-3.36-7.5-7.5s3.36-7.5 7.5-7.5z"></path><path d="m102.5 51.311c4.15 0 7.5 3.36 7.5 7.5s-3.35 7.5-7.5 7.5c-4.14 0-7.5-3.36-7.5-7.5s3.36-7.5 7.5-7.5z"></path><path d="m87.5 251.311c4.15 0 7.5 3.36 7.5 7.499 0 4.14-3.35 7.5-7.5 7.5-4.14 0-7.5-3.36-7.5-7.5 0-4.139 3.36-7.499 7.5-7.499z"></path><path d="m72.5 441.31c4.15 0 7.5 3.36 7.5 7.5s-3.35 7.5-7.5 7.5c-4.14 0-7.5-3.36-7.5-7.5 0-4.139 3.36-7.5 7.5-7.5z"></path><path d="m42.5 161.311c4.15 0 7.5 3.36 7.5 7.5s-3.35 7.5-7.5 7.5c-4.14 0-7.5-3.36-7.5-7.5s3.36-7.5 7.5-7.5z"></path></g><path d="m260.03 262.23c-37.341 0-67.72-30.356-67.72-67.669 0-2.761 2.239-5 5-5s5 2.239 5 5c0 31.799 25.893 57.67 57.72 57.67 15.337 0 29.801-6.012 40.726-16.927 10.927-10.916 16.944-25.386 16.944-40.743 0-31.799-25.87-57.67-57.67-57.67-2.761 0-5-2.239-5-5s2.239-5 5-5c37.313 0 67.67 30.357 67.67 67.67 0 18.03-7.06 35.012-19.876 47.817-12.813 12.802-29.787 19.852-47.794 19.852z" fill="#d7deed"></path></g></g></g></svg>